<?xml version="1.0" encoding="UTF-8" standalone="no"?>
<!-- Created with Inkscape (http://www.inkscape.org/) -->
<svg xmlns:inkscape="http://www.inkscape.org/namespaces/inkscape" xmlns:sodipodi="http://sodipodi.sourceforge.net/DTD/sodipodi-0.dtd" xmlns="http://www.w3.org/2000/svg" xmlns:svg="http://www.w3.org/2000/svg" version="1.1" id="svg2" width="479.70667" height="135.38667" viewBox="0 0 479.70667 135.38667" sodipodi:docname="Logo ipsen Pantone.eps">
  <defs id="defs6"></defs>
  <g id="g8" inkscape:groupmode="layer" inkscape:label="ink_ext_XXXXXX" transform="matrix(1.3333333,0,0,-1.3333333,0,135.38667)">
    <g id="g10" transform="scale(0.1)">
      <path d="m 475.039,1007.57 c 0,0 -706.027,-254.086 -116.41,-507.16 0,0 -703.203,250.156 116.41,507.16" style="fill:#173a79;fill-opacity:1;fill-rule:nonzero;stroke:none" id="path12"></path>
      <path d="m 475.039,1007.57 c 0,0 -706.027,-254.086 -116.41,-507.16 0,0 -703.203,250.156 116.41,507.16 z" style="fill:none;stroke:#173a79;stroke-width:15.704;stroke-linecap:round;stroke-linejoin:round;stroke-miterlimit:4;stroke-dasharray:none;stroke-opacity:1" id="path14"></path>
      <path d="m 129.102,47.6758 c 0,0 714.664,235.2342 122.726,500.0582 0,0 706.512,-264.629 -122.726,-500.0582" style="fill:#173a79;fill-opacity:1;fill-rule:nonzero;stroke:none" id="path16"></path>
      <path d="m 129.102,47.6758 c 0,0 714.664,235.2342 122.726,500.0582 0,0 706.512,-264.629 -122.726,-500.0582 z" style="fill:none;stroke:#173a79;stroke-width:15.704;stroke-linecap:round;stroke-linejoin:round;stroke-miterlimit:4;stroke-dasharray:none;stroke-opacity:1" id="path18"></path>
      <path d="m 7.85156,457.031 c 0,0 714.64444,235.215 122.71444,500.039 0,0 706.5,-264.629 -122.71444,-500.039" style="fill:#4194d7;fill-opacity:1;fill-rule:nonzero;stroke:none" id="path20"></path>
      <path d="m 7.85156,457.031 c 0,0 714.64444,235.215 122.71444,500.039 0,0 706.5,-264.629 -122.71444,-500.039 z" style="fill:none;stroke:#4194d7;stroke-width:15.704;stroke-linecap:round;stroke-linejoin:round;stroke-miterlimit:4;stroke-dasharray:none;stroke-opacity:1" id="path22"></path>
      <path d="m 591.781,633.523 c 0,0 -706.011,-254.07 -116.379,-507.136 0,0 -703.207,250.156 116.379,507.136" style="fill:#4194d7;fill-opacity:1;fill-rule:nonzero;stroke:none" id="path24"></path>
      <path d="m 591.781,633.523 c 0,0 -706.011,-254.07 -116.379,-507.136 0,0 -703.207,250.156 116.379,507.136 z" style="fill:none;stroke:#4194d7;stroke-width:15.704;stroke-linecap:round;stroke-linejoin:round;stroke-miterlimit:4;stroke-dasharray:none;stroke-opacity:1" id="path26"></path>
      <path d="m 553.238,772.227 c 14.032,-33.028 1.524,-67.657 -36.703,-82.305 -31.297,-13.039 -58.625,15.254 -65.281,36.797 -6.527,33.125 30.074,56.035 69.312,62.89 14.332,0.879 26.399,-4.804 32.672,-17.382" style="fill:#4194d7;fill-opacity:1;fill-rule:nonzero;stroke:none" id="path28"></path>
      <path d="M 1534.65,785.906 H 1021.2 V 313.73 h 189.08 v 166.758 l 324.37,0.02 c 79.07,0 126.28,17.715 126.28,95.566 v 114.278 c 0,78.515 -47.21,95.554 -126.28,95.554 z m -62.67,-189.051 c 0,-39.042 -10.69,-55.644 -50.34,-55.644 h -211.36 c 0,0 -0.11,129.394 0,129.375 0.22,35.918 17.21,54.793 64.38,54.793 39.6,0 146.98,0 146.98,0 39.13,0 50.75,-16.445 50.34,-54.402 v -74.122" style="fill:#173a79;fill-opacity:1;fill-rule:nonzero;stroke:none" id="path30"></path>
      <path d="M 738.707,313.73 H 927.824 V 785.906 H 738.707 Z" style="fill:#173a79;fill-opacity:1;fill-rule:nonzero;stroke:none" id="path32"></path>
      <path d="m 2316.81,412.129 c 0,-52.774 -15.2,-98.399 -123.43,-98.399 h -431.25 v 60.918 h 320.5 c 27.45,0 45.23,16.465 45.23,43.223 v 54.16 c 0,35.457 -15.28,50.508 -47.72,50.508 h -250.85 c -84.42,0 -109.59,41.445 -109.59,91.727 l -0.11,86.027 c 0.29,51.824 40.21,85.613 109.78,85.613 h 417.22 c 0,0 -4.63,-60.508 -79.54,-60.508 -36.35,0 -209.67,0 -209.67,0 -39.74,0 -48.91,-22.812 -48.91,-48.816 v -44.609 c 0,-28.321 11.31,-48.86 46.55,-48.86 l 243.38,0.129 c 94.15,0 118.41,-36.476 118.41,-103.965 v -67.148" style="fill:#173a79;fill-opacity:1;fill-rule:nonzero;stroke:none" id="path34"></path>
      <path d="m 2375,314.473 v 472.175 h 515.93 v -61.25 c 0,0 -253.9,0 -276.99,0 -31.64,0 -49.4,-11.519 -49.4,-49.539 0,-17.043 0,-92.785 0,-92.785 h 270.84 c 0,0 -4.7,-60.566 -79.62,-60.566 -21.64,0 -191.22,0 -191.22,0 0,0 0,-68.563 0,-97.352 0,-37.558 18.58,-49.668 47.4,-49.668 28.9,0 278.99,0 278.99,0 V 314.473 H 2375" style="fill:#173a79;fill-opacity:1;fill-rule:nonzero;stroke:none" id="path36"></path>
      <path d="m 3437.43,313.73 c -45.12,0 -78.44,18.848 -112.48,57.247 -24.69,27.832 -283.5,324.91 -283.5,324.91 h -2.53 V 313.73 h -86.97 v 472.176 c 0,0 147,0 173.82,0 26.87,0 59.56,-4.609 86,-35.429 23.48,-27.372 294.5,-339.383 294.5,-339.383 h 2.61 v 374.812 h 87.82 V 313.73 c 0,0 -130.8,0 -159.27,0" style="fill:#173a79;fill-opacity:1;fill-rule:nonzero;stroke:none" id="path38"></path>
      <path d="m 759.691,60.3516 c 0,-6.8164 -4.414,-11.0352 -11.457,-11.0352 -7.043,0 -11.461,4.2188 -11.461,11.0352 V 208.262 c 0,6.816 4.418,11.054 11.461,11.054 7.043,0 11.457,-4.238 11.457,-11.054 V 60.3516" style="fill:#173a79;fill-opacity:1;fill-rule:nonzero;stroke:none" id="path40"></path>
      <path d="m 791.234,166.016 c 0,6.797 4.434,11.035 11.481,11.035 7.027,0 11.461,-4.238 11.461,-11.035 v -4.942 l 0.523,-0.469 c 10.164,11.739 24.5,16.446 38.324,16.446 21.364,0 48.207,-12.207 48.207,-47.442 V 60.3516 c 0,-6.8164 -4.433,-11.0352 -11.476,-11.0352 -7.027,0 -11.461,4.2188 -11.461,11.0352 v 68.0864 c 0,21.855 -16.945,30.761 -32.051,30.761 -15.125,0 -32.066,-8.906 -32.066,-30.761 V 60.3516 c 0,-6.8164 -4.434,-11.0352 -11.461,-11.0352 -7.047,0 -11.481,4.2188 -11.481,11.0352 V 166.016" style="fill:#173a79;fill-opacity:1;fill-rule:nonzero;stroke:none" id="path42"></path>
      <path d="m 932.77,166.016 c 0,6.797 4.433,11.035 11.464,11.035 7.039,0 11.473,-4.238 11.473,-11.035 v -4.942 l 0.527,-0.469 c 10.164,11.739 24.5,16.446 38.309,16.446 21.377,0 48.227,-12.207 48.227,-47.442 V 60.3516 c 0,-6.8164 -4.43,-11.0352 -11.48,-11.0352 -7.03,0 -11.46,4.2188 -11.46,11.0352 v 68.0864 c 0,21.855 -16.94,30.761 -32.072,30.761 -15.121,0 -32.051,-8.906 -32.051,-30.761 V 60.3516 c 0,-6.8164 -4.434,-11.0352 -11.473,-11.0352 -7.031,0 -11.464,4.2188 -11.464,11.0352 V 166.016" style="fill:#173a79;fill-opacity:1;fill-rule:nonzero;stroke:none" id="path44"></path>
      <path d="m 1129.3,177.051 c 39.09,0 60.98,-30.762 60.98,-63.867 0,-33.1254 -21.89,-63.8676 -60.98,-63.8676 -39.11,0 -61,30.7422 -61,63.8676 0,33.105 21.89,63.867 61,63.867 z m 0,-109.9026 c 28.14,0 38.04,24.8829 38.04,46.0356 0,21.132 -9.9,46.015 -38.04,46.015 -28.16,0 -38.06,-24.883 -38.06,-46.015 0,-21.1527 9.9,-46.0356 38.06,-46.0356" style="fill:#173a79;fill-opacity:1;fill-rule:nonzero;stroke:none" id="path46"></path>
      <path d="m 1204.36,158.965 c -1.57,3.75 -2.34,6.094 -2.34,8.457 0,6.094 4.94,9.629 10.41,9.629 7.57,0 10.17,-3.281 11.99,-7.988 l 31.54,-86.4263 h 0.52 l 31.55,86.4263 c 1.82,4.707 4.43,7.988 11.98,7.988 5.47,0 10.43,-3.535 10.43,-9.629 0,-2.363 -0.79,-4.707 -2.35,-8.457 L 1268.22,58.2227 c -2.35,-6.0938 -4.69,-8.9063 -12,-8.9063 -7.29,0 -9.64,2.8125 -11.99,8.9063 l -39.87,100.7423" style="fill:#173a79;fill-opacity:1;fill-rule:nonzero;stroke:none" id="path48"></path>
      <path d="m 1442.85,59.3945 c 0,-7.2656 -6.26,-10.0781 -10.7,-10.0781 -4.69,0 -10.69,2.8125 -10.69,10.0781 v 8.711 h -0.5 c -9.92,-12.6953 -22.96,-18.7891 -37.8,-18.7891 -39.09,0 -61,30.7422 -61,63.8676 0,33.105 21.91,63.867 61,63.867 15.89,0 27.11,-6.113 37.8,-16.68 h 0.5 v 6.582 c 0,7.266 6,10.098 10.69,10.098 4.44,0 10.7,-2.832 10.7,-10.098 z m -59.69,7.7539 c 28.14,0 38.05,24.8829 38.05,46.0356 0,21.132 -9.91,46.015 -38.05,46.015 -28.16,0 -38.06,-24.883 -38.06,-46.015 0,-21.1527 9.9,-46.0356 38.06,-46.0356" style="fill:#173a79;fill-opacity:1;fill-rule:nonzero;stroke:none" id="path50"></path>
      <path d="m 1481.68,202.637 c 0,6.816 4.43,11.035 11.47,11.035 7.04,0 11.47,-4.219 11.47,-11.035 v -27.012 h 9.38 c 7.56,0 11.47,-3.281 11.47,-8.906 0,-5.645 -3.91,-8.926 -11.47,-8.926 h -9.38 V 60.3516 c 0,-6.8164 -4.43,-11.0352 -11.47,-11.0352 -7.04,0 -11.47,4.2188 -11.47,11.0352 v 97.4414 h -9.38 c -7.57,0 -11.47,3.281 -11.47,8.926 0,5.625 3.9,8.906 11.47,8.906 h 9.38 v 27.012" style="fill:#173a79;fill-opacity:1;fill-rule:nonzero;stroke:none" id="path52"></path>
      <path d="m 1554.91,219.316 c 7.82,0 14.08,-5.644 14.08,-12.675 0,-7.051 -6.26,-12.696 -14.08,-12.696 -7.82,0 -14.06,5.645 -14.06,12.696 0,7.031 6.24,12.675 14.06,12.675 z m 11.48,-158.9644 c 0,-6.8164 -4.44,-11.0352 -11.48,-11.0352 -7.03,0 -11.46,4.2188 -11.46,11.0352 V 166.016 c 0,6.797 4.43,11.035 11.46,11.035 7.04,0 11.48,-4.238 11.48,-11.035 V 60.3516" style="fill:#173a79;fill-opacity:1;fill-rule:nonzero;stroke:none" id="path54"></path>
      <path d="m 1652.91,177.051 c 39.1,0 61.01,-30.762 61.01,-63.867 0,-33.1254 -21.91,-63.8676 -61.01,-63.8676 -39.09,0 -61,30.7422 -61,63.8676 0,33.105 21.91,63.867 61,63.867 z m 0,-109.9026 c 28.16,0 38.07,24.8829 38.07,46.0356 0,21.132 -9.91,46.015 -38.07,46.015 -28.13,0 -38.04,-24.883 -38.04,-46.015 0,-21.1527 9.91,-46.0356 38.04,-46.0356" style="fill:#173a79;fill-opacity:1;fill-rule:nonzero;stroke:none" id="path56"></path>
      <path d="m 1739.44,166.016 c 0,6.797 4.44,11.035 11.48,11.035 7.03,0 11.46,-4.238 11.46,-11.035 v -4.942 l 0.53,-0.469 c 10.17,11.739 24.49,16.446 38.3,16.446 21.38,0 48.22,-12.207 48.22,-47.442 V 60.3516 c 0,-6.8164 -4.42,-11.0352 -11.45,-11.0352 -7.04,0 -11.48,4.2188 -11.48,11.0352 v 68.0864 c 0,21.855 -16.94,30.761 -32.05,30.761 -15.12,0 -32.07,-8.906 -32.07,-30.761 V 60.3516 c 0,-6.8164 -4.43,-11.0352 -11.46,-11.0352 -7.04,0 -11.48,4.2188 -11.48,11.0352 V 166.016" style="fill:#173a79;fill-opacity:1;fill-rule:nonzero;stroke:none" id="path58"></path>
      <path d="m 1977.68,60.3516 c 0,-6.8164 -4.44,-11.0352 -11.47,-11.0352 -7.04,0 -11.47,4.2188 -11.47,11.0352 v 97.4414 h -9.38 c -7.57,0 -11.47,3.281 -11.47,8.926 0,5.625 3.9,8.906 11.47,8.906 h 9.38 v 29.355 c 0,18.086 13.8,27.012 30.48,27.012 h 7.06 c 5.98,0 13.01,-3.281 13.01,-8.926 0,-5.644 -3.89,-8.925 -12.51,-8.925 h -5.72 c -7.04,0 -9.38,-3.047 -9.38,-8.223 v -30.293 h 14.33 c 7.55,0 11.46,-3.281 11.46,-8.906 0,-5.645 -3.91,-8.926 -11.46,-8.926 h -14.33 V 60.3516" style="fill:#173a79;fill-opacity:1;fill-rule:nonzero;stroke:none" id="path60"></path>
      <path d="m 2071.25,177.051 c 39.07,0 60.98,-30.762 60.98,-63.867 0,-33.1254 -21.91,-63.8676 -60.98,-63.8676 -39.11,0 -61,30.7422 -61,63.8676 0,33.105 21.89,63.867 61,63.867 z m 0,-109.9026 c 28.14,0 38.04,24.8829 38.04,46.0356 0,21.132 -9.9,46.015 -38.04,46.015 -28.16,0 -38.07,-24.883 -38.07,-46.015 0,-21.1527 9.91,-46.0356 38.07,-46.0356" style="fill:#173a79;fill-opacity:1;fill-rule:nonzero;stroke:none" id="path62"></path>
      <path d="m 2157.77,166.016 c 0,6.797 4.43,11.035 11.47,11.035 7.04,0 11.46,-4.238 11.46,-11.035 v -10.567 h 0.52 c 5.23,9.61 17.99,21.602 31.28,21.602 8.09,0 12.78,-4.707 12.78,-10.586 0,-5.86 -4.69,-9.61 -14.33,-11.25 -13.57,-2.11 -30.25,-11.27 -30.25,-35.469 V 60.3516 c 0,-6.8164 -4.42,-11.0352 -11.46,-11.0352 -7.04,0 -11.47,4.2188 -11.47,11.0352 V 166.016" style="fill:#173a79;fill-opacity:1;fill-rule:nonzero;stroke:none" id="path64"></path>
      <path d="m 2308.67,166.016 c 0,6.797 4.44,11.035 11.48,11.035 7.05,0 11.46,-4.238 11.46,-11.035 v -6.114 h 0.53 c 6.51,11.27 18.77,17.149 37,17.149 37.54,0 59.16,-30.762 59.16,-63.867 0,-33.1254 -21.62,-63.8676 -59.16,-63.8676 -18.23,0 -31.01,9.1602 -37,16.8945 h -0.53 V 11.0313 C 2331.61,4.21094 2327.2,0 2320.15,0 c -7.04,0 -11.48,4.21094 -11.48,11.0313 z m 58.65,-98.8676 c 28.15,0 38.06,24.8829 38.06,46.0356 0,21.132 -9.91,46.015 -38.06,46.015 -28.14,0 -38.05,-24.883 -38.05,-46.015 0,-21.1527 9.91,-46.0356 38.05,-46.0356" style="fill:#173a79;fill-opacity:1;fill-rule:nonzero;stroke:none" id="path66"></path>
      <path d="m 2568.54,59.3945 c 0,-7.2656 -6.25,-10.0781 -10.69,-10.0781 -4.7,0 -10.68,2.8125 -10.68,10.0781 v 8.711 h -0.53 c -9.9,-12.6953 -22.94,-18.7891 -37.8,-18.7891 -39.07,0 -60.98,30.7422 -60.98,63.8676 0,33.105 21.91,63.867 60.98,63.867 15.92,0 27.13,-6.113 37.8,-16.68 h 0.53 v 6.582 c 0,7.266 5.98,10.098 10.68,10.098 4.44,0 10.69,-2.832 10.69,-10.098 z m -59.7,7.7539 c 28.16,0 38.06,24.8829 38.06,46.0356 0,21.132 -9.9,46.015 -38.06,46.015 -28.14,0 -38.04,-24.883 -38.04,-46.015 0,-21.1527 9.9,-46.0356 38.04,-46.0356" style="fill:#173a79;fill-opacity:1;fill-rule:nonzero;stroke:none" id="path68"></path>
      <path d="m 2607.37,202.637 c 0,6.816 4.44,11.035 11.48,11.035 7.03,0 11.46,-4.219 11.46,-11.035 v -27.012 h 9.38 c 7.57,0 11.47,-3.281 11.47,-8.906 0,-5.645 -3.9,-8.926 -11.47,-8.926 h -9.38 V 60.3516 c 0,-6.8164 -4.43,-11.0352 -11.46,-11.0352 -7.04,0 -11.48,4.2188 -11.48,11.0352 V 157.793 H 2598 c -7.57,0 -11.48,3.281 -11.48,8.926 0,5.625 3.91,8.906 11.48,8.906 h 9.37 v 27.012" style="fill:#173a79;fill-opacity:1;fill-rule:nonzero;stroke:none" id="path70"></path>
      <path d="m 2680.61,219.316 c 7.83,0 14.08,-5.644 14.08,-12.675 0,-7.051 -6.25,-12.696 -14.08,-12.696 -7.82,0 -14.08,5.645 -14.08,12.696 0,7.031 6.26,12.675 14.08,12.675 z m 11.47,-158.9644 c 0,-6.8164 -4.43,-11.0352 -11.47,-11.0352 -7.04,0 -11.47,4.2188 -11.47,11.0352 V 166.016 c 0,6.797 4.43,11.035 11.47,11.035 7.04,0 11.47,-4.238 11.47,-11.035 V 60.3516" style="fill:#173a79;fill-opacity:1;fill-rule:nonzero;stroke:none" id="path72"></path>
      <path d="m 2738.22,105.195 c 0,-21.3669 15.11,-38.0466 40.92,-38.0466 30.49,0 38.3,16.9141 46.9,16.9141 4.18,0 8.34,-3.2812 8.34,-9.1602 0,-10.0976 -28.39,-25.5859 -55.5,-25.5859 -44.32,0 -63.62,30.7422 -63.62,63.8676 0,33.808 23.47,63.867 62.32,63.867 37.78,0 59.69,-30.762 59.69,-60.821 0,-7.285 -2.89,-11.035 -12.78,-11.035 z m 76.11,15.489 c 0,17.851 -11.48,38.515 -36.75,38.515 -28.42,0.938 -38.59,-19.492 -39.36,-38.515 h 76.11" style="fill:#173a79;fill-opacity:1;fill-rule:nonzero;stroke:none" id="path74"></path>
      <path d="m 2860.45,166.016 c 0,6.797 4.43,11.035 11.47,11.035 7.04,0 11.47,-4.238 11.47,-11.035 v -4.942 l 0.52,-0.469 c 10.16,11.739 24.5,16.446 38.31,16.446 21.37,0 48.22,-12.207 48.22,-47.442 V 60.3516 c 0,-6.8164 -4.43,-11.0352 -11.47,-11.0352 -7.04,0 -11.47,4.2188 -11.47,11.0352 v 68.0864 c 0,21.855 -16.94,30.761 -32.05,30.761 -15.12,0 -32.06,-8.906 -32.06,-30.761 V 60.3516 c 0,-6.8164 -4.43,-11.0352 -11.47,-11.0352 -7.04,0 -11.47,4.2188 -11.47,11.0352 V 166.016" style="fill:#173a79;fill-opacity:1;fill-rule:nonzero;stroke:none" id="path76"></path>
      <path d="m 3009.27,202.637 c 0,6.816 4.43,11.035 11.46,11.035 7.04,0 11.48,-4.219 11.48,-11.035 v -27.012 h 9.37 c 7.57,0 11.49,-3.281 11.49,-8.906 0,-5.645 -3.92,-8.926 -11.49,-8.926 h -9.37 V 60.3516 c 0,-6.8164 -4.44,-11.0352 -11.48,-11.0352 -7.03,0 -11.46,4.2188 -11.46,11.0352 v 97.4414 h -9.38 c -7.57,0 -11.47,3.281 -11.47,8.926 0,5.625 3.9,8.906 11.47,8.906 h 9.38 v 27.012" style="fill:#173a79;fill-opacity:1;fill-rule:nonzero;stroke:none" id="path78"></path>
      <path d="m 3194.07,177.051 c 23.45,0 37.28,-7.285 37.28,-15.742 0,-4.219 -3.92,-8.672 -9.4,-8.672 -8.84,0 -12.24,6.562 -27.88,6.562 -28.42,0 -39.62,-24.883 -39.62,-46.015 0,-21.1527 11.2,-46.0356 39.62,-46.0356 16.15,0 20.33,7.0508 27.62,7.0508 5.22,0 8.87,-3.0469 8.87,-8.6914 0,-7.7539 -12.78,-16.1914 -36.49,-16.1914 -42.22,0 -62.56,30.7422 -62.56,63.8676 0,33.105 20.34,63.867 62.56,63.867" style="fill:#173a79;fill-opacity:1;fill-rule:nonzero;stroke:none" id="path80"></path>
      <path d="m 3369.22,59.3945 c 0,-7.2656 -6.26,-10.0781 -10.69,-10.0781 -4.69,0 -10.69,2.8125 -10.69,10.0781 v 8.711 h -0.51 c -9.92,-12.6953 -22.95,-18.7891 -37.8,-18.7891 -39.09,0 -60.99,30.7422 -60.99,63.8676 0,33.105 21.9,63.867 60.99,63.867 15.9,0 27.11,-6.113 37.8,-16.68 h 0.51 v 6.582 c 0,7.266 6,10.098 10.69,10.098 4.43,0 10.69,-2.832 10.69,-10.098 z m -59.69,7.7539 c 28.15,0 38.05,24.8829 38.05,46.0356 0,21.132 -9.9,46.015 -38.05,46.015 -28.15,0 -38.06,-24.883 -38.06,-46.015 0,-21.1527 9.91,-46.0356 38.06,-46.0356" style="fill:#173a79;fill-opacity:1;fill-rule:nonzero;stroke:none" id="path82"></path>
      <path d="m 3400.74,166.016 c 0,6.797 4.46,11.035 11.48,11.035 7.03,0 11.48,-4.238 11.48,-11.035 v -10.567 h 0.51 c 5.21,9.61 17.99,21.602 31.28,21.602 8.07,0 12.77,-4.707 12.77,-10.586 0,-5.86 -4.7,-9.61 -14.33,-11.25 -13.55,-2.11 -30.23,-11.27 -30.23,-35.469 V 60.3516 c 0,-6.8164 -4.45,-11.0352 -11.48,-11.0352 -7.02,0 -11.48,4.2188 -11.48,11.0352 V 166.016" style="fill:#173a79;fill-opacity:1;fill-rule:nonzero;stroke:none" id="path84"></path>
      <path d="m 3498.75,105.195 c 0,-21.3669 15.13,-38.0466 40.92,-38.0466 30.49,0 38.32,16.9141 46.92,16.9141 4.17,0 8.34,-3.2812 8.34,-9.1602 0,-10.0976 -28.42,-25.5859 -55.53,-25.5859 -44.29,0 -63.59,30.7422 -63.59,63.8676 0,33.808 23.47,63.867 62.3,63.867 37.8,0 59.68,-30.762 59.68,-60.821 0,-7.285 -2.86,-11.035 -12.77,-11.035 z m 76.1,15.489 c 0,17.851 -11.45,38.515 -36.74,38.515 -28.4,0.938 -38.57,-19.492 -39.36,-38.515 h 76.1" style="fill:#173a79;fill-opacity:1;fill-rule:nonzero;stroke:none" id="path86"></path>
    </g>
  </g>
</svg>
